<svg width="27" height="27" viewBox="0 0 27 27" fill="none" xmlns="http://www.w3.org/2000/svg">
<path d="M8.55804 8.6183C9.92411 7.25223 11.5714 6.5692 13.5 6.5692C15.4286 6.5692 17.0558 7.25223 18.3817 8.6183C19.7478 9.9442 20.4308 11.5714 20.4308 13.5C20.4308 15.4286 19.7478 17.0759 18.3817 18.442C17.0558 19.7679 15.4286 20.4308 13.5 20.4308C11.5714 20.4308 9.92411 19.7679 8.55804 18.442C7.23214 17.0759 6.5692 15.4286 6.5692 13.5C6.5692 11.5714 7.23214 9.9442 8.55804 8.6183ZM10.3058 16.6942C11.1897 17.5781 12.2545 18.0201 13.5 18.0201C14.7455 18.0201 15.8103 17.5781 16.6942 16.6942C17.5781 15.8103 18.0201 14.7455 18.0201 13.5C18.0201 12.2545 17.5781 11.1897 16.6942 10.3058C15.8103 9.42188 14.7455 8.97991 13.5 8.97991C12.2545 8.97991 11.1897 9.42188 10.3058 10.3058C9.42188 11.1897 8.97991 12.2545 8.97991 13.5C8.97991 14.7455 9.42188 15.8103 10.3058 16.6942ZM21.817 5.18304C22.1384 5.46429 22.2991 5.82589 22.2991 6.26786C22.2991 6.70982 22.1384 7.09152 21.817 7.41295C21.5357 7.73438 21.1741 7.89509 20.7321 7.89509C20.2902 7.89509 19.9085 7.73438 19.5871 7.41295C19.2656 7.09152 19.1049 6.70982 19.1049 6.26786C19.1049 5.82589 19.2656 5.46429 19.5871 5.18304C19.9085 4.86161 20.2902 4.70089 20.7321 4.70089C21.1741 4.70089 21.5357 4.86161 21.817 5.18304ZM26.9397 7.95536C26.9799 9.04018 27 10.8884 27 13.5C27 16.1116 26.9799 17.9598 26.9397 19.0446C26.8192 21.4955 26.0759 23.404 24.7098 24.7701C23.3839 26.096 21.4955 26.7991 19.0446 26.8795C17.9598 26.9598 16.1116 27 13.5 27C10.8884 27 9.04018 26.9598 7.95536 26.8795C5.50446 26.7589 3.61607 26.0357 2.29018 24.7098C1.76786 24.2277 1.34598 23.6652 1.02455 23.0223C0.703125 22.3795 0.462054 21.7567 0.301339 21.154C0.180804 20.5513 0.120536 19.8482 0.120536 19.0446C0.0401786 17.9598 0 16.1116 0 13.5C0 10.8884 0.0401786 9.02009 0.120536 7.89509C0.241071 5.48438 0.964286 3.61607 2.29018 2.29018C3.61607 0.924107 5.50446 0.180804 7.95536 0.0602679C9.04018 0.0200893 10.8884 0 13.5 0C16.1116 0 17.9598 0.0200893 19.0446 0.0602679C21.4955 0.180804 23.3839 0.924107 24.7098 2.29018C26.0759 3.61607 26.8192 5.50446 26.9397 7.95536ZM24.0469 21.4554C24.1674 21.1339 24.2679 20.7321 24.3482 20.25C24.4286 19.7277 24.4888 19.125 24.529 18.442C24.5692 17.7188 24.5893 17.1362 24.5893 16.6942C24.5893 16.2522 24.5893 15.6295 24.5893 14.8259C24.5893 14.0223 24.5893 13.5804 24.5893 13.5C24.5893 13.3795 24.5893 12.9375 24.5893 12.1741C24.5893 11.3705 24.5893 10.7478 24.5893 10.3058C24.5893 9.86384 24.5692 9.30134 24.529 8.6183C24.4888 7.89509 24.4286 7.29241 24.3482 6.81027C24.2679 6.28795 24.1674 5.86607 24.0469 5.54464C23.5647 4.29911 22.7009 3.43527 21.4554 2.95312C21.1339 2.83259 20.7121 2.73214 20.1897 2.65179C19.7076 2.57143 19.1049 2.51116 18.3817 2.47098C17.6987 2.4308 17.1362 2.41071 16.6942 2.41071C16.2924 2.41071 15.6696 2.41071 14.8259 2.41071C14.0223 2.41071 13.5804 2.41071 13.5 2.41071C13.4196 2.41071 12.9777 2.41071 12.1741 2.41071C11.3705 2.41071 10.7478 2.41071 10.3058 2.41071C9.86384 2.41071 9.28125 2.4308 8.55804 2.47098C7.875 2.51116 7.27232 2.57143 6.75 2.65179C6.26786 2.73214 5.86607 2.83259 5.54464 2.95312C4.29911 3.43527 3.43527 4.29911 2.95312 5.54464C2.83259 5.86607 2.73214 6.28795 2.65179 6.81027C2.57143 7.29241 2.51116 7.89509 2.47098 8.6183C2.4308 9.30134 2.41071 9.86384 2.41071 10.3058C2.41071 10.7076 2.41071 11.3304 2.41071 12.1741C2.41071 12.9777 2.41071 13.4196 2.41071 13.5C2.41071 13.6607 2.41071 14.0424 2.41071 14.6451C2.41071 15.2076 2.41071 15.6897 2.41071 16.0915C2.41071 16.4531 2.41071 16.9353 2.41071 17.5379C2.45089 18.1406 2.49107 18.6629 2.53125 19.1049C2.57143 19.5067 2.6317 19.9286 2.71205 20.3705C2.79241 20.8125 2.87277 21.1741 2.95312 21.4554C3.47545 22.7009 4.33929 23.5647 5.54464 24.0469C5.86607 24.1674 6.26786 24.2679 6.75 24.3482C7.27232 24.4286 7.875 24.4888 8.55804 24.529C9.28125 24.5692 9.84375 24.5893 10.2455 24.5893C10.6875 24.5893 11.3103 24.5893 12.1138 24.5893C12.9576 24.5893 13.4196 24.5893 13.5 24.5893C13.6205 24.5893 14.0625 24.5893 14.8259 24.5893C15.6295 24.5893 16.2522 24.5893 16.6942 24.5893C17.1362 24.5893 17.6987 24.5692 18.3817 24.529C19.1049 24.4888 19.7076 24.4286 20.1897 24.3482C20.7121 24.2679 21.1339 24.1674 21.4554 24.0469C22.7009 23.5246 23.5647 22.6607 24.0469 21.4554Z" fill="white"/>
</svg>
