<svg width="27" height="27" viewBox="0 0 27 27" fill="none" xmlns="http://www.w3.org/2000/svg">
<path d="M5.95751 27H0.417026V8.97991H5.95751V27ZM3.21706 6.50893C2.34329 6.50893 1.58867 6.1875 0.953202 5.54464C0.317734 4.90179 0 4.13839 0 3.25446C0 2.37054 0.317734 1.60714 0.953202 0.964286C1.58867 0.321429 2.34329 0 3.21706 0C3.77309 0 4.28941 0.140625 4.76601 0.421875C5.28233 0.703125 5.67949 1.10491 5.95751 1.62723C6.27525 2.10938 6.43411 2.65179 6.43411 3.25446C6.43411 3.81696 6.27525 4.35938 5.95751 4.8817C5.67949 5.36384 5.28233 5.76562 4.76601 6.08705C4.28941 6.3683 3.77309 6.50893 3.21706 6.50893ZM26.6897 27H21.1492V18.2009C21.1492 17.5179 21.1293 16.9754 21.0896 16.5737C21.0499 16.1317 20.9506 15.6496 20.7917 15.1272C20.6328 14.5647 20.335 14.1429 19.8981 13.8616C19.5009 13.5804 18.9647 13.4397 18.2896 13.4397C16.9789 13.4397 16.0853 13.8616 15.6087 14.7054C15.1718 15.5491 14.9534 16.6741 14.9534 18.0804V27H9.41287V8.97991H14.7746V11.4509H14.8342C15.2314 10.6473 15.8867 9.96429 16.8002 9.40179C17.7137 8.79911 18.8059 8.49777 20.0768 8.49777C21.4272 8.49777 22.5393 8.71875 23.413 9.16071C24.3265 9.5625 25.0017 10.1853 25.4386 11.029C25.9152 11.8326 26.2329 12.7165 26.3918 13.6808C26.5904 14.6451 26.6897 15.7902 26.6897 17.1161V27Z" fill="white"/>
</svg>
