<svg width="34" height="27" viewBox="0 0 34 27" fill="none" xmlns="http://www.w3.org/2000/svg">
<path d="M29.7734 6.75C29.8166 6.92308 29.8383 7.20433 29.8383 7.59375C29.8383 9.88702 29.4058 12.1803 28.5409 14.4736C27.6761 16.7236 26.4436 18.8005 24.8436 20.7043C23.2868 22.5649 21.2544 24.0793 18.7462 25.2476C16.2381 26.4159 13.4705 27 10.4434 27C6.63793 27 3.1568 25.9832 0 23.9495C0.475682 23.9928 1.01623 24.0144 1.62164 24.0144C4.77844 24.0144 7.61092 23.0409 10.1191 21.0938C8.60553 21.0938 7.26497 20.6611 6.09738 19.7957C4.97304 18.887 4.19465 17.762 3.76221 16.4207C4.19465 16.4639 4.60547 16.4856 4.99466 16.4856C5.60008 16.4856 6.20549 16.4207 6.81091 16.2909C5.77305 16.0745 4.84331 15.6418 4.02168 14.9928C3.20004 14.3438 2.55139 13.5649 2.0757 12.6562C1.60002 11.7043 1.36218 10.6875 1.36218 9.60577V9.47596C2.31355 10.0385 3.32978 10.3413 4.41087 10.3846C2.37841 9 1.36218 7.09615 1.36218 4.67308C1.36218 3.46154 1.68651 2.3149 2.33517 1.23317C4.02168 3.35337 6.07576 5.04087 8.49742 6.29567C10.9623 7.55048 13.5786 8.24279 16.3462 8.3726C16.2597 7.85337 16.2164 7.33413 16.2164 6.8149C16.2164 4.95433 16.8651 3.35337 18.1624 2.01202C19.503 0.670673 21.103 0 22.9625 0C24.9517 0 26.6166 0.713942 27.9571 2.14183C29.5139 1.83894 30.9626 1.29808 32.3032 0.519231C31.7842 2.12019 30.7896 3.375 29.3193 4.28365C30.6166 4.11058 31.914 3.74279 33.2113 3.18029C32.2599 4.5649 31.1139 5.75481 29.7734 6.75Z" fill="white"/>
</svg>
